<?xml version="1.0" standalone="no"?>
<!DOCTYPE svg PUBLIC "-//W3C//DTD SVG 20010904//EN"
 "http://www.w3.org/TR/2001/REC-SVG-20010904/DTD/svg10.dtd">
<svg version="1.0" xmlns="http://www.w3.org/2000/svg"
 width="500.000000pt" height="500.000000pt" viewBox="0 0 500.000000 500.000000"
 preserveAspectRatio="xMidYMid meet">

<g transform="translate(0.000000,500.000000) scale(0.100000,-0.100000)"
fill="#000000" stroke="none">
<path d="M2368 3629 c-294 -43 -563 -194 -739 -416 -60 -75 -119 -169 -144
-229 -12 -29 -12 -34 0 -34 8 0 30 31 50 68 145 278 414 484 732 564 126 32
369 32 495 0 320 -80 565 -265 723 -548 26 -46 54 -84 61 -84 17 0 6 31 -41
111 -126 215 -320 389 -543 485 -182 79 -409 110 -594 83z"/>
<path d="M2325 3516 c-294 -57 -576 -262 -709 -516 -40 -76 -41 -80 -22 -80 7
0 19 14 27 32 27 66 115 186 193 264 133 133 288 220 476 267 66 16 116 21
225 21 109 0 159 -5 225 -21 188 -47 343 -134 476 -267 78 -78 166 -198 193
-264 8 -18 20 -32 27 -32 18 0 18 3 -7 53 -32 64 -96 155 -157 225 -113 129
-323 257 -497 303 -103 27 -346 35 -450 15z"/>
<path d="M2507 3433 c-3 -5 -8 -23 -12 -40 -10 -47 -20 -48 -34 -3 -7 23 -18
40 -26 40 -18 0 -19 5 4 -55 26 -70 53 -73 75 -9 9 26 16 54 16 61 0 14 -16
18 -23 6z"/>
<path d="M2586 3399 c-3 -17 -6 -44 -6 -60 0 -27 3 -29 36 -29 21 0 33 4 29
10 -3 6 -13 10 -21 10 -8 0 -14 7 -14 15 0 8 9 15 20 15 11 0 20 5 20 10 0 6
-9 10 -21 10 -12 0 -19 5 -16 13 2 6 14 11 26 10 24 -3 28 12 5 21 -35 13 -51
6 -58 -25z"/>
<path d="M2304 3412 c-9 -5 -9 -21 -1 -60 11 -51 12 -53 41 -50 16 2 31 8 33
15 3 7 -3 10 -15 6 -11 -3 -22 1 -25 10 -3 9 2 17 14 20 10 3 19 10 19 15 0 6
-9 8 -20 5 -14 -4 -20 0 -20 11 0 9 7 16 15 16 8 0 15 5 15 10 0 12 -40 13
-56 2z"/>
<path d="M2708 3348 c-16 -58 -12 -68 32 -68 24 1 24 1 6 15 -17 13 -18 19 -8
53 15 49 15 52 -2 52 -8 0 -20 -22 -28 -52z"/>
<path d="M2168 3368 c-33 -12 -33 -14 -8 -72 21 -51 35 -56 74 -25 60 47 8
124 -66 97z m57 -53 c0 -34 -29 -48 -38 -18 -2 10 -8 26 -12 36 -7 16 -3 18
21 15 25 -3 29 -7 29 -33z"/>
<path d="M2816 3328 c-21 -30 -20 -54 4 -78 39 -39 100 -14 100 43 0 55 -73
79 -104 35z m75 -14 c17 -21 0 -49 -32 -49 -27 0 -37 28 -19 50 16 19 34 19
51 -1z"/>
<path d="M2957 3233 c-23 -31 -31 -50 -24 -55 6 -3 16 1 23 10 10 13 16 14 36
5 47 -21 79 26 41 59 -35 30 -41 28 -76 -19z m63 -17 c-13 -13 -35 7 -25 24 5
8 11 8 21 -1 10 -8 12 -15 4 -23z"/>
<path d="M1964 3247 l-28 -25 29 -38 c17 -21 33 -42 37 -48 9 -13 68 41 68 62
0 8 -8 16 -18 19 -10 2 -22 14 -27 25 -14 31 -29 32 -61 5z m41 -16 c7 -12
-12 -24 -25 -16 -11 7 -4 25 10 25 5 0 11 -4 15 -9z m35 -40 c0 -14 -18 -23
-30 -16 -6 4 -8 11 -5 16 8 12 35 12 35 0z"/>
<path d="M3059 3143 l-40 -36 25 -26 c26 -26 49 -23 27 3 -19 23 -3 41 18 22
23 -21 36 -8 15 15 -22 24 1 36 27 13 16 -14 19 -15 19 -2 0 15 -30 48 -43 48
-4 0 -25 -17 -48 -37z"/>
<path d="M1861 3146 l-22 -23 41 -37 c46 -41 51 -43 73 -18 25 27 22 50 -2 28
-25 -23 -45 -13 -30 15 14 27 3 38 -15 14 -17 -24 -31 -3 -16 25 15 27 -2 25
-29 -4z"/>
<path d="M1795 3070 c-4 -7 5 -24 21 -41 31 -33 30 -34 -16 -18 -49 18 -58 -7
-18 -48 l32 -33 -35 10 c-45 13 -62 13 -57 -2 3 -7 28 -18 58 -26 68 -17 83
-2 42 41 l-27 29 41 -7 c31 -5 43 -3 47 8 7 19 -78 104 -88 87z"/>
<path d="M3143 3049 c-24 -17 -43 -34 -43 -40 0 -13 24 -11 38 3 15 15 16 3 2
-23 -15 -28 -1 -47 17 -23 8 10 23 19 35 19 32 0 46 30 28 62 -21 36 -29 37
-77 2z m57 -33 c-7 -7 -14 -6 -22 2 -10 10 -10 15 2 22 17 11 34 -10 20 -24z"/>
<path d="M1280 2830 c0 -7 413 -10 1220 -10 807 0 1220 3 1220 10 0 7 -413 10
-1220 10 -807 0 -1220 -3 -1220 -10z"/>
<path d="M1260 2531 c-32 -80 -60 -136 -73 -145 -21 -14 -19 -15 33 -15 51 0
53 1 36 14 -16 12 -18 20 -10 43 9 25 14 27 64 27 50 0 55 -2 64 -27 8 -23 6
-31 -10 -43 -17 -13 -12 -14 54 -15 46 0 71 4 67 10 -3 6 -12 10 -19 10 -15 0
-25 19 -86 168 -23 56 -48 102 -55 102 -7 0 -36 -58 -65 -129z m74 6 c9 -23
16 -46 16 -50 0 -4 -18 -7 -40 -7 -22 0 -40 3 -40 7 0 16 33 93 40 93 4 0 15
-19 24 -43z"/>
<path d="M1520 2650 c0 -5 7 -10 15 -10 13 0 15 -20 15 -123 0 -119 -1 -124
-22 -135 -19 -9 -6 -11 63 -11 48 -1 100 2 117 5 70 14 96 84 46 123 -15 12
-34 21 -43 21 -11 0 -10 4 7 16 57 39 45 94 -25 113 -49 14 -173 14 -173 1z
m168 -37 c6 -9 12 -23 12 -30 0 -22 -38 -53 -65 -53 -24 0 -25 3 -25 56 l0 57
33 -7 c17 -3 38 -14 45 -23z m12 -123 c39 -39 12 -100 -45 -100 -33 0 -45 20
-45 72 l0 48 35 0 c22 0 43 -8 55 -20z"/>
<path d="M1840 2651 c0 -6 7 -11 15 -11 13 0 15 -20 15 -123 0 -119 -1 -124
-22 -135 -18 -8 -2 -11 77 -11 156 -1 215 37 215 139 0 54 -21 93 -66 121 -29
18 -56 23 -135 27 -70 3 -99 1 -99 -7z m213 -51 c23 -26 27 -39 27 -89 0 -44
-5 -65 -20 -84 -24 -30 -78 -44 -109 -28 -19 11 -21 20 -21 128 l0 116 48 -7
c35 -4 54 -14 75 -36z"/>
<path d="M2200 2651 c0 -5 6 -11 14 -14 11 -4 15 -32 18 -112 3 -103 4 -108
31 -131 22 -19 39 -24 80 -24 101 0 125 35 126 178 1 75 3 84 21 89 40 11 18
23 -40 23 -33 0 -60 -4 -60 -10 0 -5 7 -10 15 -10 24 0 35 -35 35 -112 0 -86
-14 -119 -55 -131 -69 -20 -105 26 -105 134 0 74 10 109 31 109 11 0 19 5 19
10 0 6 -28 10 -65 10 -36 0 -65 -4 -65 -9z"/>
<path d="M2560 2651 c0 -5 7 -11 15 -15 12 -4 15 -27 15 -119 0 -107 -1 -116
-22 -130 -21 -15 -14 -16 110 -16 l132 -1 0 41 c0 24 -4 38 -10 34 -5 -3 -10
-13 -10 -20 0 -21 -33 -35 -79 -35 -62 0 -71 16 -71 125 0 102 5 125 26 125 8
0 14 5 14 10 0 6 -27 10 -60 10 -33 0 -60 -4 -60 -9z"/>
<path d="M2860 2650 c0 -5 6 -10 14 -10 21 0 26 -23 26 -130 0 -89 -2 -101
-22 -120 l-22 -20 127 0 c114 0 127 2 127 18 0 9 3 27 6 40 4 13 2 22 -5 22
-6 0 -11 -6 -11 -14 0 -37 -108 -64 -138 -34 -8 8 -12 50 -12 121 0 100 2 109
20 114 41 11 18 23 -45 23 -37 0 -65 -4 -65 -10z"/>
<path d="M3236 2538 c-32 -81 -57 -131 -75 -145 l-26 -23 55 0 c49 1 53 2 36
15 -15 11 -16 19 -9 42 9 26 14 28 65 31 56 3 56 3 63 -28 5 -24 3 -35 -12
-45 -16 -13 -9 -14 57 -15 l75 0 -28 23 c-18 15 -43 61 -75 142 -28 70 -55
121 -63 123 -11 2 -29 -32 -63 -120z m75 -15 l18 -43 -45 0 c-50 0 -50 0 -16
79 10 24 17 31 20 21 3 -8 13 -34 23 -57z"/>
<path d="M3490 2650 c0 -5 6 -10 14 -10 21 0 26 -23 26 -130 0 -89 -2 -101
-22 -120 l-22 -20 70 1 c66 0 68 1 47 16 -19 13 -23 25 -23 69 l0 54 70 0 70
0 0 -54 c0 -44 -4 -56 -22 -69 -22 -15 -19 -16 47 -16 66 0 69 1 48 16 -22 14
-23 23 -23 130 0 106 1 115 20 120 38 10 9 23 -51 23 -58 0 -79 -12 -39 -23
17 -4 20 -14 20 -56 l0 -51 -70 0 -70 0 0 51 c0 42 3 52 20 56 41 11 18 23
-45 23 -37 0 -65 -4 -65 -10z"/>
<path d="M1287 2183 c-4 -3 -7 -10 -7 -15 0 -4 549 -8 1221 -8 972 0 1220 3
1217 13 -4 9 -257 13 -1215 15 -665 1 -1213 -1 -1216 -5z"/>
<path d="M1580 2095 c0 -3 12 -29 26 -58 128 -253 373 -448 659 -524 87 -23
120 -26 250 -26 130 0 163 3 250 26 193 52 338 137 485 286 88 90 182 224 197
282 12 44 -17 13 -68 -73 -95 -162 -256 -312 -424 -395 -335 -167 -751 -126
-1044 102 -114 88 -232 228 -280 333 -14 29 -30 52 -38 52 -7 0 -13 -2 -13 -5z"/>
<path d="M1488 2013 c112 -242 328 -450 580 -559 527 -228 1152 -16 1439 487
54 95 59 109 40 109 -9 0 -33 -32 -55 -72 -152 -276 -400 -471 -702 -551 -105
-28 -129 -30 -275 -30 -147 0 -170 2 -277 30 -300 79 -548 275 -702 556 -21
37 -44 67 -51 67 -11 0 -10 -8 3 -37z"/>
<path d="M1861 1975 c-34 -39 -37 -53 -18 -77 23 -29 46 -29 82 3 56 49 42 71
-14 23 -51 -42 -71 -11 -24 38 19 20 24 31 16 39 -7 7 -20 -1 -42 -26z"/>
<path d="M3115 2000 c-4 -6 3 -22 16 -36 l23 -24 -46 6 c-25 4 -48 2 -51 -3
-3 -5 13 -29 37 -52 29 -29 46 -39 51 -31 4 6 -3 23 -16 36 l-24 26 50 -4 c30
-2 50 1 50 7 0 19 -83 87 -90 75z"/>
<path d="M1965 1865 c-24 -30 -34 -50 -28 -56 6 -6 23 6 48 36 24 30 34 50 28
56 -6 6 -23 -6 -48 -36z"/>
<path d="M2971 1864 c-25 -32 -26 -43 -5 -72 17 -25 71 -31 92 -10 15 15 16
64 1 73 -11 7 -49 -22 -49 -37 0 -5 10 -4 21 3 17 8 20 8 17 -2 -8 -24 -35
-34 -53 -19 -22 19 -15 53 13 60 30 7 33 24 6 28 -14 2 -29 -7 -43 -24z"/>
<path d="M2026 1812 c-6 -11 53 -46 62 -37 4 4 -4 15 -17 26 -25 21 -37 24
-45 11z"/>
<path d="M2877 1814 c-9 -10 46 -104 61 -104 16 0 16 3 -13 60 -24 48 -34 57
-48 44z"/>
<path d="M2142 1767 c-19 -52 -15 -76 14 -89 32 -15 53 -3 76 43 21 42 22 49
5 49 -7 0 -21 -16 -30 -35 -15 -32 -35 -44 -50 -29 -3 4 0 22 8 41 18 43 19
53 2 53 -7 0 -18 -15 -25 -33z"/>
<path d="M2776 1767 c-28 -21 -17 -51 22 -57 35 -5 45 -25 13 -25 -26 0 -37
-13 -17 -21 24 -9 63 3 70 22 9 24 -12 44 -46 44 -19 0 -28 4 -26 12 3 7 12
13 21 13 9 0 18 5 19 10 4 16 -35 17 -56 2z"/>
<path d="M2290 1746 c0 -3 5 -17 10 -32 9 -22 7 -31 -10 -49 -25 -26 -14 -42
12 -18 18 16 19 16 25 -5 3 -12 12 -22 19 -22 17 0 17 1 4 36 -9 23 -7 31 11
50 27 28 18 45 -10 20 -18 -17 -19 -16 -26 3 -5 17 -35 31 -35 17z"/>
<path d="M2672 1742 c-26 -8 -26 -8 -17 -74 6 -41 10 -48 28 -47 35 1 63 14
48 23 -6 4 -18 5 -26 3 -7 -3 -16 0 -19 8 -3 8 3 17 15 20 25 8 25 29 0 22
-11 -3 -22 1 -25 8 -2 7 4 15 15 18 10 3 19 10 19 16 0 12 -4 12 -38 3z"/>
<path d="M2517 1723 c-15 -4 -17 -14 -15 -61 l3 -57 35 3 c37 3 70 32 70 62 0
32 -53 63 -93 53z m63 -48 c0 -27 -12 -45 -31 -45 -15 0 -19 7 -19 33 0 19 3
37 6 40 10 10 44 -12 44 -28z"/>
</g>
</svg>
